<?xml version="1.0"?><svg width="640" height="480" xmlns="http://www.w3.org/2000/svg">
 <g>
  <title>Layer 1</title>
  <path fill-rule="evenodd" fill="#7f0000" d="m248.393982,6l-209.393982,0c-9.940979,0 -18,8.059021 -18,18l0,418.787964c0,9.940063 8.059021,18 18,18l418.786987,0c9.94104,0 18,-8.059937 18,-18l0,-418.787964c0,-9.940979 -8.05896,-18 -18,-18l-209.393005,0z" clip-rule="evenodd"/>
  <path id="svg_53" fill-rule="evenodd" fill="#ffffff" d="m227.725006,164.951996c-5.725006,2.699997 -10.584,6.192001 -14.869003,10.62001c-4.319,4.391998 -8.459,7.811996 -10.619003,15.695999c-2.268997,7.811996 -3.024002,18 -2.557007,30.996002l-53.496002,0c1.835999,6.76799 5.041016,12.059998 9.756012,16.163986c4.644989,4.032013 10.403992,6.768005 18.251999,8.064011c7.776001,1.259995 20.087997,1.115997 28.044998,-0.863983c7.919998,-2.160019 14.147003,-6.120026 19.080002,-11.88002l25.055984,22.067978c-10.367981,10.439026 -17.820007,19.223022 -22.895996,27.180023c-5.147995,7.73999 -8.999985,11.80899 -7.235992,19.546997c1.764008,7.73999 7.199005,14.328003 17.855011,26.713013c10.619995,12.384979 25.560974,27.68399 45.395996,46.728973c-25.270996,11.447021 -46.692017,20.375 -65.376007,27.611023c-18.647995,7.128998 -33.191986,13.5 -45.863998,14.832001c-12.815994,1.11499 -23.362991,-6.660004 -30.132004,-7.632996c-6.803986,-0.863007 -10.151978,-0.756012 -10.187988,2.125c0.036011,2.843994 1.90799,12.095978 10.187988,14.435974c8.243011,2.125 10.368011,7.561005 38.843994,-1.332001c28.692017,-9.144989 89.892029,-37.042999 130.822998,-52.306976c40.71701,-15.266022 77.400024,-27.900024 111.854004,-38.484009l-8.53299,-3.81601c-6.118988,1.729004 -17.243988,4.932007 -33.515991,9.756012c-16.416016,4.786987 -37.512024,11.160004 -64.115021,19.11499c-5.97699,-8.639008 -11.304993,-15.118988 -16.128967,-19.979004c-4.932007,-4.860992 -9,-7.776978 -12.744019,-8.893005c-10.367004,-11.628998 -16.882996,-20.125 -19.546997,-25.919983c-2.593018,-5.76001 1.654999,-6.229004 3.419983,-8.496002c1.512024,-2.304993 1.080017,-1.045013 5.939026,-5.507996c4.858978,-4.824005 17.495972,-15.697021 22.930969,-22.067993c5.256012,-6.371033 9.14502,-9.395996 8.893005,-15.301025c-0.323975,-5.975006 -3.85199,-12.490982 -10.583984,-19.942993l58.140991,0l3.85199,16.128006l4.248016,-14.867996l27.143005,-2.951996l-25.055023,-3.81601l-7.200989,-15.300003l-2.985992,14.004013l-66.636993,-0.432007c-12.23999,-14.688004 -23.183014,-27 -33.119995,-37.367996c-9.972015,-10.440002 -18.64801,-18.503998 -26.31601,-24.624008z" clip-rule="evenodd"/>
  <path id="svg_54" fill-rule="evenodd" fill="#ffffff" d="m175.932007,123.268005c14.884995,0 26.964996,12.079987 26.964996,26.963989c0,14.884003 -12.080002,26.964005 -26.964996,26.964005c-14.884003,0 -26.963013,-12.080002 -26.963013,-26.964005c0,-14.884003 12.07901,-26.963989 26.963013,-26.963989" clip-rule="evenodd"/>
  <path id="svg_55" fill-rule="evenodd" fill="#ffffff" d="m234.904999,121.036003c2.699005,-2.196007 8.96402,-8.712006 19.223999,-19.978996c10.222992,-11.339996 23.902985,-26.856018 41.615997,-47.23201c11.59201,18.216003 20.123016,31.356003 26.424011,39.996002c6.156006,8.531998 9.575989,12.276001 10.403992,11.23201c6.550995,-6.480011 12.061005,-11.988007 16.812988,-16.812012c4.680023,-4.824005 8.314026,-8.783997 11.195007,-12.023987c14.399994,20.015991 26.35202,36.50399 36.828003,50.435989c10.295013,13.82402 18.468994,24.300003 24.804993,32.003998l-39.204987,-36c-3.23999,9.216003 -8.531006,13.968002 -16.019989,14.400009c-7.705017,0.252014 -19.404022,-10.080009 -28.835999,-11.988007c-9.432007,-1.907997 -18.828003,3.960007 -27.21701,0.792c-8.567993,-3.348 -15.19101,-16.596001 -23.218994,-20.015999c-8.063995,-3.384003 -16.235992,-3.384003 -24.805023,0c-9.323975,5.039001 -18.64798,10.114998 -28.006989,15.191002z" clip-rule="evenodd"/>
 </g>
</svg>